<svg width="385" height="66" viewBox="0 0 385 66" fill="none" xmlns="http://www.w3.org/2000/svg">
<path d="M78.6406 46V20.5455H89.6278C91.517 20.5455 93.1701 20.8893 94.587 21.5771C96.0039 22.2648 97.1059 23.255 97.8931 24.5476C98.6803 25.8402 99.0739 27.3897 99.0739 29.196C99.0739 31.0189 98.6679 32.556 97.8558 33.8072C97.0521 35.0584 95.921 36.003 94.4627 36.641C93.0127 37.279 91.3182 37.598 89.3793 37.598H82.8168V32.2287H87.9872C88.7992 32.2287 89.4911 32.1293 90.0629 31.9304C90.6429 31.7232 91.0862 31.396 91.3928 30.9485C91.7076 30.5011 91.8651 29.9169 91.8651 29.196C91.8651 28.4669 91.7076 27.8744 91.3928 27.4187C91.0862 26.9547 90.6429 26.6149 90.0629 26.3995C89.4911 26.1758 88.7992 26.0639 87.9872 26.0639H85.5511V46H78.6406ZM93.5554 34.3168L99.919 46H92.4119L86.1974 34.3168H93.5554ZM110.857 46.348C108.818 46.348 107.062 45.9586 105.587 45.1797C104.12 44.3925 102.989 43.2656 102.194 41.799C101.406 40.3241 101.013 38.5592 101.013 36.5043C101.013 34.5322 101.411 32.8087 102.206 31.3338C103.001 29.8589 104.124 28.7113 105.574 27.891C107.024 27.0707 108.735 26.6605 110.707 26.6605C112.149 26.6605 113.454 26.8842 114.623 27.3317C115.791 27.7791 116.789 28.4296 117.618 29.283C118.446 30.1282 119.085 31.1557 119.532 32.3654C119.979 33.5752 120.203 34.9382 120.203 36.4545V38.0455H103.151V34.267H113.889C113.881 33.7202 113.74 33.2396 113.467 32.8253C113.201 32.4027 112.841 32.0754 112.385 31.8434C111.938 31.6031 111.428 31.483 110.857 31.483C110.301 31.483 109.792 31.6031 109.328 31.8434C108.864 32.0754 108.491 32.3986 108.209 32.8129C107.936 33.2272 107.791 33.7119 107.774 34.267V38.3438C107.774 38.9569 107.903 39.5038 108.159 39.9844C108.416 40.465 108.785 40.842 109.266 41.1154C109.746 41.3888 110.326 41.5256 111.006 41.5256C111.478 41.5256 111.909 41.4593 112.298 41.3267C112.696 41.1941 113.036 41.0036 113.317 40.755C113.599 40.4981 113.806 40.1915 113.939 39.8352H120.203C119.988 41.161 119.478 42.3127 118.674 43.2905C117.871 44.2599 116.806 45.014 115.48 45.5526C114.163 46.0829 112.621 46.348 110.857 46.348ZM123.003 46V26.9091H129.516V30.5384H129.714C130.112 29.3452 130.792 28.4006 131.753 27.7045C132.714 27.0085 133.857 26.6605 135.183 26.6605C136.525 26.6605 137.681 27.0168 138.651 27.7294C139.62 28.4337 140.204 29.37 140.403 30.5384H140.602C140.925 29.37 141.613 28.4337 142.665 27.7294C143.718 27.0168 144.952 26.6605 146.369 26.6605C148.2 26.6605 149.684 27.2488 150.819 28.4254C151.962 29.602 152.534 31.1681 152.534 33.1236V46H145.673V34.8636C145.673 34.0268 145.462 33.3722 145.039 32.8999C144.617 32.4193 144.049 32.179 143.337 32.179C142.632 32.179 142.073 32.4193 141.659 32.8999C141.253 33.3722 141.05 34.0268 141.05 34.8636V46H134.487V34.8636C134.487 34.0268 134.276 33.3722 133.853 32.8999C133.431 32.4193 132.863 32.179 132.15 32.179C131.678 32.179 131.272 32.2867 130.932 32.5021C130.593 32.7176 130.328 33.0283 130.137 33.4343C129.955 33.832 129.864 34.3085 129.864 34.8636V46H123.003ZM165.115 46.348C163.044 46.348 161.271 45.9379 159.796 45.1175C158.321 44.2889 157.19 43.1372 156.403 41.6623C155.615 40.1791 155.222 38.4598 155.222 36.5043C155.222 34.5488 155.615 32.8336 156.403 31.3587C157.19 29.8755 158.321 28.7237 159.796 27.9034C161.271 27.0748 163.044 26.6605 165.115 26.6605C167.187 26.6605 168.96 27.0748 170.435 27.9034C171.91 28.7237 173.041 29.8755 173.828 31.3587C174.615 32.8336 175.009 34.5488 175.009 36.5043C175.009 38.4598 174.615 40.1791 173.828 41.6623C173.041 43.1372 171.91 44.2889 170.435 45.1175C168.96 45.9379 167.187 46.348 165.115 46.348ZM165.165 41.277C165.745 41.277 166.246 41.0823 166.669 40.6928C167.091 40.3034 167.419 39.7482 167.651 39.0273C167.883 38.3065 167.999 37.4489 167.999 36.4545C167.999 35.4519 167.883 34.5943 167.651 33.8817C167.419 33.1609 167.091 32.6057 166.669 32.2163C166.246 31.8268 165.745 31.6321 165.165 31.6321C164.552 31.6321 164.026 31.8268 163.586 32.2163C163.147 32.6057 162.812 33.1609 162.58 33.8817C162.348 34.5943 162.232 35.4519 162.232 36.4545C162.232 37.4489 162.348 38.3065 162.58 39.0273C162.812 39.7482 163.147 40.3034 163.586 40.6928C164.026 41.0823 164.552 41.277 165.165 41.277ZM189.178 26.9091V31.8807H176.6V26.9091H189.178ZM179.036 22.3352H185.896V39.8601C185.896 40.1252 185.942 40.349 186.033 40.5312C186.124 40.7053 186.265 40.8378 186.456 40.929C186.646 41.0118 186.891 41.0533 187.189 41.0533C187.396 41.0533 187.637 41.0284 187.91 40.9787C188.192 40.929 188.399 40.8875 188.531 40.8544L189.526 45.6768C189.219 45.768 188.78 45.8799 188.208 46.0124C187.645 46.145 186.974 46.232 186.195 46.2734C184.62 46.3563 183.299 46.1947 182.23 45.7887C181.161 45.3744 180.357 44.724 179.819 43.8374C179.28 42.9508 179.019 41.8404 179.036 40.5064V22.3352ZM200.92 46.348C198.882 46.348 197.125 45.9586 195.65 45.1797C194.184 44.3925 193.052 43.2656 192.257 41.799C191.47 40.3241 191.076 38.5592 191.076 36.5043C191.076 34.5322 191.474 32.8087 192.269 31.3338C193.065 29.8589 194.188 28.7113 195.638 27.891C197.088 27.0707 198.799 26.6605 200.771 26.6605C202.213 26.6605 203.518 26.8842 204.686 27.3317C205.854 27.7791 206.853 28.4296 207.681 29.283C208.51 30.1282 209.148 31.1557 209.595 32.3654C210.043 33.5752 210.267 34.9382 210.267 36.4545V38.0455H193.214V34.267H203.953C203.944 33.7202 203.804 33.2396 203.53 32.8253C203.265 32.4027 202.905 32.0754 202.449 31.8434C202.001 31.6031 201.492 31.483 200.92 31.483C200.365 31.483 199.855 31.6031 199.391 31.8434C198.927 32.0754 198.554 32.3986 198.273 32.8129C197.999 33.2272 197.854 33.7119 197.838 34.267V38.3438C197.838 38.9569 197.966 39.5038 198.223 39.9844C198.48 40.465 198.849 40.842 199.329 41.1154C199.81 41.3888 200.39 41.5256 201.069 41.5256C201.541 41.5256 201.972 41.4593 202.362 41.3267C202.759 41.1941 203.099 41.0036 203.381 40.755C203.663 40.4981 203.87 40.1915 204.002 39.8352H210.267C210.051 41.161 209.542 42.3127 208.738 43.2905C207.934 44.2599 206.869 45.014 205.544 45.5526C204.226 46.0829 202.685 46.348 200.92 46.348ZM231.474 26.9091V31.8807H218.697V26.9091H231.474ZM221.133 46V26.3622C221.133 24.7879 221.414 23.4828 221.978 22.4471C222.541 21.4113 223.337 20.6366 224.364 20.1229C225.392 19.6091 226.601 19.3523 227.993 19.3523C228.863 19.3523 229.709 19.4186 230.529 19.5511C231.358 19.6837 231.971 19.7997 232.368 19.8991L231.374 24.821C231.126 24.7464 230.836 24.6884 230.504 24.647C230.173 24.5973 229.883 24.5724 229.634 24.5724C228.988 24.5724 228.553 24.7092 228.329 24.9826C228.105 25.256 227.993 25.6165 227.993 26.0639V46H221.133ZM242.737 46.348C240.666 46.348 238.893 45.9379 237.418 45.1175C235.943 44.2889 234.812 43.1372 234.025 41.6623C233.237 40.1791 232.844 38.4598 232.844 36.5043C232.844 34.5488 233.237 32.8336 234.025 31.3587C234.812 29.8755 235.943 28.7237 237.418 27.9034C238.893 27.0748 240.666 26.6605 242.737 26.6605C244.809 26.6605 246.582 27.0748 248.057 27.9034C249.532 28.7237 250.663 29.8755 251.45 31.3587C252.237 32.8336 252.631 34.5488 252.631 36.5043C252.631 38.4598 252.237 40.1791 251.45 41.6623C250.663 43.1372 249.532 44.2889 248.057 45.1175C246.582 45.9379 244.809 46.348 242.737 46.348ZM242.787 41.277C243.367 41.277 243.868 41.0823 244.291 40.6928C244.714 40.3034 245.041 39.7482 245.273 39.0273C245.505 38.3065 245.621 37.4489 245.621 36.4545C245.621 35.4519 245.505 34.5943 245.273 33.8817C245.041 33.1609 244.714 32.6057 244.291 32.2163C243.868 31.8268 243.367 31.6321 242.787 31.6321C242.174 31.6321 241.648 31.8268 241.209 32.2163C240.769 32.6057 240.434 33.1609 240.202 33.8817C239.97 34.5943 239.854 35.4519 239.854 36.4545C239.854 37.4489 239.97 38.3065 240.202 39.0273C240.434 39.7482 240.769 40.3034 241.209 40.6928C241.648 41.0823 242.174 41.277 242.787 41.277ZM255.415 46V26.9091H262.077V30.5384H262.276C262.624 29.196 263.175 28.2141 263.929 27.5927C264.691 26.9712 265.582 26.6605 266.601 26.6605C266.899 26.6605 267.193 26.6854 267.483 26.7351C267.782 26.7765 268.068 26.8387 268.341 26.9215V32.7756C268.001 32.6596 267.583 32.5726 267.086 32.5146C266.589 32.4566 266.162 32.4276 265.805 32.4276C265.134 32.4276 264.529 32.5808 263.991 32.8874C263.461 33.1857 263.042 33.6083 262.736 34.1552C262.429 34.6938 262.276 35.3277 262.276 36.0568V46H255.415ZM291.185 28.5C291.119 27.6714 290.808 27.0251 290.253 26.5611C289.706 26.0971 288.874 25.8651 287.755 25.8651C287.042 25.8651 286.458 25.9521 286.003 26.1261C285.555 26.2918 285.224 26.5196 285.008 26.8097C284.793 27.0997 284.681 27.4311 284.673 27.804C284.656 28.1106 284.71 28.3881 284.834 28.6367C284.967 28.877 285.174 29.0966 285.456 29.2955C285.737 29.486 286.098 29.66 286.537 29.8175C286.976 29.9749 287.498 30.1158 288.103 30.2401L290.191 30.6875C291.6 30.9858 292.805 31.3794 293.808 31.8683C294.811 32.3571 295.631 32.933 296.269 33.5959C296.907 34.2505 297.375 34.9879 297.673 35.8082C297.98 36.6286 298.137 37.5234 298.146 38.4929C298.137 40.1667 297.719 41.5836 296.89 42.7436C296.062 43.9036 294.877 44.7861 293.336 45.391C291.803 45.9959 289.959 46.2983 287.805 46.2983C285.592 46.2983 283.662 45.971 282.013 45.3164C280.372 44.6618 279.096 43.6551 278.185 42.2962C277.282 40.929 276.826 39.1806 276.818 37.0511H283.38C283.421 37.83 283.616 38.4846 283.964 39.0149C284.312 39.5452 284.801 39.9471 285.431 40.2205C286.069 40.494 286.827 40.6307 287.705 40.6307C288.443 40.6307 289.06 40.5395 289.557 40.3572C290.054 40.175 290.431 39.9222 290.688 39.5991C290.945 39.2759 291.078 38.9072 291.086 38.4929C291.078 38.1035 290.949 37.7637 290.701 37.4737C290.46 37.1754 290.063 36.9103 289.508 36.6783C288.952 36.438 288.203 36.2143 287.258 36.0071L284.722 35.4602C282.469 34.9714 280.691 34.1552 279.39 33.0117C278.098 31.86 277.456 30.2898 277.464 28.3011C277.456 26.6854 277.886 25.2726 278.756 24.0629C279.635 22.8448 280.849 21.8961 282.398 21.2166C283.956 20.5372 285.742 20.1974 287.755 20.1974C289.81 20.1974 291.587 20.5413 293.087 21.229C294.587 21.9168 295.743 22.8862 296.555 24.1374C297.375 25.3803 297.789 26.8345 297.798 28.5H291.185ZM307.735 20.5455V46H300.874V20.5455H307.735ZM311.23 46V26.9091H318.091V46H311.23ZM314.661 24.9205C313.733 24.9205 312.937 24.6139 312.274 24.0007C311.611 23.3875 311.28 22.6501 311.28 21.7884C311.28 20.9266 311.611 20.1892 312.274 19.576C312.937 18.9628 313.733 18.6562 314.661 18.6562C315.597 18.6562 316.392 18.9628 317.047 19.576C317.71 20.1892 318.041 20.9266 318.041 21.7884C318.041 22.6501 317.71 23.3875 317.047 24.0007C316.392 24.6139 315.597 24.9205 314.661 24.9205ZM328.497 46.2486C327.138 46.2486 325.887 45.8923 324.744 45.1797C323.609 44.4671 322.697 43.3858 322.009 41.9357C321.33 40.4857 320.99 38.6586 320.99 36.4545C320.99 34.151 321.346 32.2784 322.059 30.8366C322.78 29.3949 323.708 28.3384 324.843 27.6673C325.987 26.9961 327.188 26.6605 328.448 26.6605C329.392 26.6605 330.221 26.8262 330.933 27.1577C331.646 27.4808 332.243 27.9158 332.723 28.4627C333.204 29.0013 333.568 29.5937 333.817 30.2401H333.916V20.5455H340.777V46H333.966V42.8679H333.817C333.552 43.5142 333.171 44.0942 332.673 44.608C332.185 45.1134 331.588 45.5153 330.884 45.8136C330.188 46.1036 329.392 46.2486 328.497 46.2486ZM331.033 40.9787C331.662 40.9787 332.201 40.7964 332.649 40.4318C333.104 40.0589 333.452 39.5369 333.693 38.8658C333.941 38.1863 334.065 37.3826 334.065 36.4545C334.065 35.5099 333.941 34.7021 333.693 34.0309C333.452 33.3514 333.104 32.8336 332.649 32.4773C332.201 32.1127 331.662 31.9304 331.033 31.9304C330.403 31.9304 329.864 32.1127 329.417 32.4773C328.978 32.8336 328.638 33.3514 328.398 34.0309C328.166 34.7021 328.05 35.5099 328.05 36.4545C328.05 37.3991 328.166 38.2112 328.398 38.8906C328.638 39.5618 328.978 40.0797 329.417 40.4442C329.864 40.8005 330.403 40.9787 331.033 40.9787ZM353.293 46.348C351.255 46.348 349.498 45.9586 348.023 45.1797C346.557 44.3925 345.426 43.2656 344.63 41.799C343.843 40.3241 343.449 38.5592 343.449 36.5043C343.449 34.5322 343.847 32.8087 344.642 31.3338C345.438 29.8589 346.561 28.7113 348.011 27.891C349.461 27.0707 351.172 26.6605 353.144 26.6605C354.586 26.6605 355.891 26.8842 357.059 27.3317C358.227 27.7791 359.226 28.4296 360.054 29.283C360.883 30.1282 361.521 31.1557 361.968 32.3654C362.416 33.5752 362.64 34.9382 362.64 36.4545V38.0455H345.587V34.267H356.326C356.317 33.7202 356.177 33.2396 355.903 32.8253C355.638 32.4027 355.278 32.0754 354.822 31.8434C354.374 31.6031 353.865 31.483 353.293 31.483C352.738 31.483 352.228 31.6031 351.764 31.8434C351.3 32.0754 350.927 32.3986 350.646 32.8129C350.372 33.2272 350.227 33.7119 350.211 34.267V38.3438C350.211 38.9569 350.339 39.5038 350.596 39.9844C350.853 40.465 351.222 40.842 351.702 41.1154C352.183 41.3888 352.763 41.5256 353.442 41.5256C353.915 41.5256 354.345 41.4593 354.735 41.3267C355.133 41.1941 355.472 41.0036 355.754 40.755C356.036 40.4981 356.243 40.1915 356.375 39.8352H362.64C362.424 41.161 361.915 42.3127 361.111 43.2905C360.307 44.2599 359.242 45.014 357.917 45.5526C356.599 46.0829 355.058 46.348 353.293 46.348ZM382.89 33.1236H376.576C376.542 32.7341 376.406 32.3986 376.165 32.1168C375.925 31.8351 375.614 31.6197 375.233 31.4705C374.86 31.3131 374.446 31.2344 373.99 31.2344C373.402 31.2344 372.897 31.3421 372.474 31.5575C372.051 31.773 371.844 32.0795 371.853 32.4773C371.844 32.759 371.964 33.02 372.213 33.2603C372.47 33.5006 372.963 33.687 373.692 33.8196L377.57 34.5156C379.525 34.8719 380.98 35.4727 381.933 36.3178C382.894 37.1547 383.378 38.2775 383.387 39.6861C383.378 41.045 382.972 42.2257 382.169 43.2283C381.373 44.2227 380.284 44.9933 378.9 45.5401C377.524 46.0787 375.954 46.348 374.189 46.348C371.273 46.348 368.99 45.7514 367.341 44.5582C365.7 43.3651 364.785 41.7907 364.594 39.8352H371.405C371.496 40.4401 371.795 40.9083 372.3 41.2397C372.814 41.5629 373.46 41.7244 374.239 41.7244C374.869 41.7244 375.387 41.6167 375.793 41.4013C376.207 41.1858 376.418 40.8793 376.426 40.4815C376.418 40.117 376.236 39.8269 375.88 39.6115C375.532 39.3961 374.985 39.2221 374.239 39.0895L370.858 38.4929C368.911 38.1532 367.453 37.5069 366.483 36.554C365.514 35.6011 365.033 34.3748 365.042 32.875C365.033 31.5492 365.381 30.4265 366.086 29.5067C366.798 28.5787 367.813 27.8744 369.131 27.3938C370.456 26.9049 372.027 26.6605 373.841 26.6605C376.6 26.6605 378.776 27.2322 380.366 28.3757C381.966 29.5192 382.807 31.1018 382.89 33.1236Z" fill="#333333"/>
<path d="M8.25 5.5C6.79131 5.5 5.39236 6.07946 4.36091 7.11091C3.32946 8.14236 2.75 9.54131 2.75 11V44C2.75 45.4587 3.32946 46.8576 4.36091 47.8891C5.39236 48.9205 6.79131 49.5 8.25 49.5H27.5V55H22V60.5H44V55H38.5V49.5H57.75C59.2087 49.5 60.6076 48.9205 61.6391 47.8891C62.6705 46.8576 63.25 45.4587 63.25 44V11C63.25 9.54131 62.6705 8.14236 61.6391 7.11091C60.6076 6.07946 59.2087 5.5 57.75 5.5M8.25 11H57.75V44H8.25M41.25 13.75L31.625 23.375L41.25 33L45.1 29.15L39.325 23.375L45.1 17.6M24.75 22L20.9 25.85L26.675 31.625L20.9 37.4L24.75 41.25L34.375 31.625" fill="#0EA5E9"/>
</svg>
